<svg width="32" height="32" viewBox="0 0 32 32" fill="none" xmlns="http://www.w3.org/2000/svg">
<path d="M12.0001 20.2861C11.8295 20.2861 11.659 20.221 11.5287 20.0908L10.0001 18.5622L8.47146 20.0908C8.21104 20.3512 7.78917 20.3512 7.52875 20.0908L5.97797 18.54C5.78396 18.346 5.72862 18.0527 5.83864 17.8014L9.38943 9.68555C9.49554 9.44303 9.73513 9.28613 10.0001 9.28613C10.2651 9.28613 10.5047 9.44303 10.6108 9.68555L14.1616 17.8014C14.2716 18.0527 14.2162 18.346 14.0222 18.54L12.4715 20.0908C12.3412 20.221 12.1707 20.2861 12.0001 20.2861ZM10.0001 16.9528C10.1707 16.9528 10.3412 17.0179 10.4715 17.1481L12.0001 18.6768L12.7576 17.9189L10.0001 11.6159L7.24262 17.9189L8.0001 18.6768L9.52875 17.1481C9.65896 17.0179 9.82953 16.9528 10.0001 16.9528Z" fill="#FF5723"/>
<path d="M24.833 24.2456C24.6562 24.2456 24.4866 24.1753 24.3616 24.0503L22.6663 22.355L20.971 24.0503C20.846 24.1753 20.6764 24.2456 20.4997 24.2456C20.3229 24.2456 20.1533 24.1753 20.0283 24.0503L18.2685 22.2902C18.0644 22.0861 18.015 21.7743 18.1455 21.5168C19.5788 18.6955 20.957 15.9683 22.0631 13.6213C22.1732 13.3879 22.4082 13.2388 22.6663 13.2388C22.9245 13.2388 23.1595 13.3879 23.2695 13.6213C24.3756 15.9683 25.7539 18.6955 27.1872 21.5168C27.3177 21.7743 27.2682 22.0861 27.0641 22.2902L25.3043 24.0503C25.1793 24.1753 25.0098 24.2456 24.833 24.2456ZM22.6663 20.7456C22.8369 20.7456 23.0075 20.8107 23.1377 20.9409L24.833 22.6362L25.7793 21.6896C24.6689 19.5021 23.5976 17.3794 22.6663 15.4523C21.735 17.3794 20.6637 19.5021 19.5534 21.6896L20.4997 22.6362L22.195 20.9409C22.3252 20.8107 22.4958 20.7456 22.6663 20.7456Z" fill="#FF5723"/>
<path d="M31.3331 32.0002H13.9998C13.7716 32.0002 13.559 31.8833 13.4366 31.6906C13.3145 31.4979 13.2992 31.2557 13.3966 31.0493C14.6251 28.4432 16.2113 25.3221 17.7459 22.3039L18.1456 21.5168C18.2423 21.3263 18.4246 21.1938 18.6355 21.1603C18.8464 21.1281 19.0603 21.1965 19.2113 21.3475L20.4998 22.6362L22.1951 20.9409C22.4555 20.6805 22.8774 20.6805 23.1378 20.9409L24.8331 22.6362L26.1215 21.3475C26.2725 21.1965 26.4874 21.1281 26.6974 21.1603C26.9083 21.1938 27.0906 21.3263 27.1873 21.5168L27.587 22.3039C29.1215 25.3221 30.7078 28.4432 31.9363 31.0493C32.0336 31.2557 32.0183 31.4979 31.8962 31.6906C31.7739 31.8833 31.5613 32.0002 31.3331 32.0002ZM15.0558 30.6668H30.2771C29.1368 28.2957 27.7563 25.5793 26.4148 22.9399L25.3045 24.0503C25.0545 24.3003 24.6117 24.3003 24.3617 24.0503L22.6664 22.355L20.9711 24.0503C20.8461 24.1753 20.6765 24.2456 20.4998 24.2456C20.323 24.2456 20.1534 24.1753 20.0284 24.0503L18.9181 22.9399C17.5766 25.5793 16.196 28.2957 15.0558 30.6668Z" fill="#FF5723"/>
<path d="M14.0227 31.9526H0.666579C0.441644 31.9526 0.231683 31.839 0.108636 31.6509C-0.0144107 31.4627 -0.0342677 31.2248 0.0559016 31.0187L5.83845 17.8013C5.92667 17.5994 6.10896 17.4543 6.32543 17.4136C6.54288 17.3729 6.76489 17.4412 6.92048 17.5972L7.99991 18.6766L9.52856 17.1479C9.78897 16.8875 10.2108 16.8875 10.4713 17.1479L11.9999 18.6766L13.0793 17.5972C13.2349 17.4416 13.4566 17.3732 13.6744 17.4136C13.8909 17.4543 14.0732 17.5994 14.1614 17.8013L17.4452 25.3071C17.525 25.4894 17.5191 25.6974 17.4296 25.8748C16.1978 28.314 15.3332 30.0705 14.6256 31.5705C14.5155 31.8039 14.2808 31.9526 14.0227 31.9526ZM1.68578 30.6193H13.6008C14.2512 29.2521 15.036 27.6603 16.0979 25.5542L13.3313 19.2306L12.4713 20.0907C12.2108 20.3511 11.789 20.3511 11.5286 20.0907L9.99991 18.562L8.47127 20.0907C8.21085 20.3511 7.78897 20.3511 7.52856 20.0907L6.66853 19.2306L1.68578 30.6193Z" fill="#FF5723"/>
<path d="M9.99967 10.6667C9.63151 10.6667 9.33301 10.3682 9.33301 10V0.666667C9.33301 0.298503 9.63151 0 9.99967 0C10.3678 0 10.6663 0.298503 10.6663 0.666667V10C10.6663 10.3682 10.3678 10.6667 9.99967 10.6667Z" fill="#FF5723"/>
<path d="M16.6663 6.66683H9.99967C9.63151 6.66683 9.33301 6.36833 9.33301 6.00016V2.00016C9.33301 1.632 9.63151 1.3335 9.99967 1.3335H16.6663C16.9121 1.3335 17.138 1.46891 17.2542 1.68571C17.3701 1.90251 17.3574 2.16553 17.221 2.36995L16.1341 4.00016L17.221 5.63037C17.3574 5.8348 17.3701 6.09782 17.2542 6.31462C17.138 6.53141 16.9121 6.66683 16.6663 6.66683ZM10.6663 5.3335H15.4206L14.7783 4.36995C14.6289 4.146 14.6289 3.85433 14.7783 3.63037L15.4206 2.66683H10.6663V5.3335Z" fill="#FF5723"/>
</svg>
