<svg width="35" height="30" viewBox="0 0 35 30" fill="none" xmlns="http://www.w3.org/2000/svg">
<path d="M33.2881 27.0442H0.776021C0.332674 27.0442 0.0371094 26.7486 0.0371094 26.3053V18.6945C0.0371094 18.2511 0.332674 17.9556 0.776021 17.9556H33.2881C33.7315 17.9556 34.0271 18.2511 34.0271 18.6945V26.3053C34.0271 26.6747 33.6576 27.0442 33.2881 27.0442ZM1.51493 25.5664H32.5492V19.4334H1.51493V25.5664Z" fill="#FF5723"/>
<path d="M27.8941 9.01473H25.0862C24.6429 9.01473 24.3473 8.71916 24.3473 8.27581C24.3473 7.83247 24.6429 7.5369 25.0862 7.5369H27.1552V1.47782H6.90898V7.5369H8.75626C9.1996 7.5369 9.49517 7.83247 9.49517 8.27581C9.49517 8.71916 9.1996 9.01473 8.75626 9.01473H6.17006C5.72672 9.01473 5.43115 8.71916 5.43115 8.27581V0.738912C5.43115 0.295565 5.72672 0 6.17006 0H27.8202C28.2635 0 28.5591 0.295565 28.5591 0.738912V8.27581C28.633 8.71916 28.2635 9.01473 27.8941 9.01473Z" fill="#FF5723"/>
<path d="M18.9533 9.01493H15.111C14.6676 9.01493 14.3721 8.71937 14.3721 8.27602C14.3721 7.83267 14.6676 7.53711 15.111 7.53711H18.9533C19.3967 7.53711 19.6922 7.83267 19.6922 8.27602C19.6922 8.71937 19.3228 9.01493 18.9533 9.01493Z" fill="#FF5723"/>
<path d="M33.288 19.4336H0.775858C0.554184 19.4336 0.258619 19.2858 0.110837 19.0641C-0.0369456 18.8425 -0.0369456 18.5469 0.110837 18.3252L5.50489 7.90655C5.72657 7.5371 6.16992 7.38932 6.46548 7.61099C6.83494 7.83266 6.98272 8.27601 6.76104 8.57157L2.03201 17.9558H32.0318L27.2289 8.64547C27.0072 8.27601 27.155 7.83266 27.5245 7.68488C27.8939 7.46321 28.3373 7.61099 28.4851 7.98044L33.8791 18.3991C34.0269 18.6208 33.953 18.9163 33.8791 19.138C33.7313 19.3597 33.5097 19.4336 33.288 19.4336Z" fill="#FF5723"/>
<path d="M5.50502 29.9999C5.06168 29.9999 4.76611 29.7043 4.76611 29.261V26.3053C4.76611 25.862 5.06168 25.5664 5.50502 25.5664C5.94837 25.5664 6.24394 25.862 6.24394 26.3053V29.261C6.24394 29.7043 5.94837 29.9999 5.50502 29.9999Z" fill="#FF5723"/>
<path d="M28.5592 29.9999C28.1159 29.9999 27.8203 29.7043 27.8203 29.261V26.3053C27.8203 25.862 28.1159 25.5664 28.5592 25.5664C29.0026 25.5664 29.2981 25.862 29.2981 26.3053V29.261C29.2981 29.7043 28.9287 29.9999 28.5592 29.9999Z" fill="#FF5723"/>
<path d="M15.111 10.7141H9.27358C8.83023 10.7141 8.53467 10.4185 8.53467 9.97515V6.65004C8.53467 6.2067 8.83023 5.91113 9.27358 5.91113H15.111C15.5543 5.91113 15.8499 6.2067 15.8499 6.65004V9.97515C15.8499 10.3446 15.5543 10.7141 15.111 10.7141ZM10.0125 9.23624H14.3721V7.38896H10.0125V9.23624Z" fill="#FF5723"/>
<path d="M24.7907 10.7141H18.9533C18.5099 10.7141 18.2144 10.4185 18.2144 9.97515V6.65004C18.2144 6.2067 18.5099 5.91113 18.9533 5.91113H24.7907C25.234 5.91113 25.5296 6.2067 25.5296 6.65004V9.97515C25.5296 10.3446 25.234 10.7141 24.7907 10.7141ZM19.6922 9.23624H24.0518V7.38896H19.6922V9.23624Z" fill="#FF5723"/>
</svg>
