<svg width="19" height="20" viewBox="0 0 19 20" fill="none" xmlns="http://www.w3.org/2000/svg">
<path d="M6.25697 11.9643V12.6652C6.25697 14.768 6.25697 16.8708 6.25697 18.9736C6.25697 19.8254 6.07433 19.997 5.21593 19.9982C3.82056 19.9982 2.4252 19.9982 1.02983 19.9982C0.210391 19.9982 0.0094875 19.8108 0.0094875 19.0137C0.0094875 15.2122 0.00948847 11.4106 0.000965296 7.60906C-0.00722755 7.39816 0.0368341 7.1885 0.129235 6.99871C0.221636 6.80892 0.359515 6.64488 0.53062 6.52117C3.12816 4.45733 5.71514 2.38376 8.29157 0.300449C8.764 -0.0816529 9.13537 -0.109643 9.63093 0.27611C12.3364 2.39592 15.0557 4.49952 17.7888 6.58688C17.9439 6.69541 18.0686 6.84191 18.1509 7.01235C18.2332 7.1828 18.2703 7.37149 18.2588 7.56039C18.2515 11.4033 18.2588 15.245 18.2515 19.0867C18.2515 19.801 18.0567 19.9909 17.3517 19.9945C15.8549 20.0018 14.358 20.0018 12.8612 19.9945C12.2061 19.9945 12.0028 19.7767 12.0004 19.1111C12.0004 16.7467 12.0004 14.381 12.0004 11.9631L6.25697 11.9643Z" fill="#DCDCE6"/>
</svg>
