<svg width="22" height="30" viewBox="0 0 22 30" fill="none" xmlns="http://www.w3.org/2000/svg">
<path d="M21.8748 23.2261V7.49993C21.8748 4.39185 19.9705 3.86123 14.6649 3.76995L15.5399 1.57686C17.2186 1.85559 18.0623 2.24998 18.1248 2.5C18.1248 2.84517 18.4046 3.12501 18.7498 3.12501C19.095 3.12501 19.3748 2.84517 19.3748 2.5C19.3748 0.325016 14.0705 0 10.9062 0C8.37994 0 2.5 0.243748 2.5 2.5C2.5 2.84517 2.77984 3.12501 3.12501 3.12501C3.47018 3.12501 3.75002 2.84517 3.75002 2.5C3.81254 2.24998 4.65001 1.85125 6.33123 1.57188L7.20995 3.76813C1.90627 3.86123 0 4.39185 0 7.49993V23.2261C0 25.101 1.40624 26.9472 3.01808 27.3954L0.893078 28.8604C0.609018 29.0566 0.537768 29.446 0.733997 29.7301C0.930226 30.0141 1.31958 30.0854 1.6037 29.8892L5.06866 27.4998H16.8061L20.2698 29.8892C20.5538 30.0854 20.9433 30.0142 21.1395 29.7301C21.3357 29.446 21.2645 29.0566 20.9804 28.8604L18.7992 27.356C21.0367 26.841 21.8748 24.9848 21.8748 23.2261ZM10.9062 1.24997C12.0265 1.24557 13.1463 1.29837 14.2612 1.40811L13.3237 3.75495C12.5824 3.74996 11.7962 3.74996 10.9374 3.74996C10.0787 3.74996 9.29241 3.74996 8.55056 3.75495L7.61055 1.40495C8.70578 1.29755 9.80569 1.24581 10.9062 1.24997ZM20.6248 23.2261C20.6248 24.3554 20.2186 26.2498 17.4999 26.2498H3.74996C2.65873 26.2498 1.24997 24.7835 1.24997 23.2261V7.49993C1.24997 5.23372 2.15494 4.99993 10.9374 4.99993C19.7198 4.99993 20.6248 5.23372 20.6248 7.49993V23.2261Z" fill="#FF5723"/>
<path d="M4.5425 18.1249H17.2811C18.3567 18.1249 19.373 17.1468 19.373 16.1118V9.16123C19.3748 8.07064 18.3223 7.5 17.2811 7.5H4.5425C3.35874 7.5 2.5 8.19872 2.5 9.16123V16.1118C2.5 17.1468 3.49251 18.1249 4.5425 18.1249ZM3.74997 9.16123C3.74997 8.86188 4.23559 8.74997 4.54244 8.74997H17.2811C17.6336 8.74997 18.1229 8.89311 18.1229 9.16123L18.1248 16.1118C18.1248 16.4468 17.6561 16.8749 17.2811 16.8749H4.5425C4.17998 16.8749 3.75003 16.4612 3.75003 16.1118V9.16123H3.74997Z" fill="#FF5723"/>
<path d="M16.8745 19.9995C15.4938 19.9995 14.3745 21.1188 14.3745 22.4995C14.3745 23.8802 15.4938 24.9995 16.8745 24.9995C18.2552 24.9995 19.3745 23.8803 19.3745 22.4995C19.3745 21.1188 18.2552 19.9995 16.8745 19.9995ZM16.8745 23.7495C16.1842 23.7495 15.6245 23.1899 15.6245 22.4995C15.6245 21.8092 16.1842 21.2495 16.8745 21.2495C17.5649 21.2495 18.1245 21.8092 18.1245 22.4995C18.1245 23.1899 17.5649 23.7495 16.8745 23.7495Z" fill="#FF5723"/>
<path d="M5 19.9995C3.61931 19.9995 2.5 21.1188 2.5 22.4995C2.5 23.8802 3.61931 24.9995 5 24.9995C6.38069 24.9995 7.49999 23.8803 7.49999 22.4995C7.49993 21.1188 6.38069 19.9995 5 19.9995ZM5 23.7495C4.30965 23.7495 3.75003 23.1899 3.75003 22.4995C3.75003 21.8092 4.30965 21.2495 5 21.2495C5.69034 21.2495 6.24996 21.8092 6.24996 22.4995C6.24996 23.1899 5.69034 23.7495 5 23.7495Z" fill="#FF5723"/>
</svg>
