<svg width="42" height="38" viewBox="0 0 42 38" fill="none" xmlns="http://www.w3.org/2000/svg">
<path d="M11.8652 25.6009C11.783 26.2617 11.6689 26.9235 11.6159 27.5843C11.3813 30.6753 12.4413 33.3353 14.3048 35.7117C14.7668 36.3039 15.2745 36.8572 15.7593 37.4337C15.805 37.4875 15.8351 37.5496 15.9027 37.6488H0.178223C0.238484 37.519 0.276831 37.4106 0.337092 37.3114C3.7537 31.1906 7.1694 25.0698 10.586 18.9574C10.6536 18.8415 10.7522 18.7266 10.8581 18.6497C13.1608 17.0741 15.7137 16.251 18.4857 16.1509C21.0157 16.0583 23.4161 16.5662 25.7042 17.6654C25.7343 17.6811 25.7727 17.6811 25.8868 17.7043C25.1849 16.9479 24.3965 16.2793 23.5384 15.7126C21.3261 14.2593 18.8801 13.8441 16.2971 14.0591C15.2434 14.1444 14.1989 14.3056 13.1078 14.4363C15.6224 9.90782 18.1451 5.39417 20.698 0.819336C23.8298 6.28362 26.9658 11.7454 30.106 17.2048C30.6355 18.1344 31.2263 19.0343 31.681 20.0038C31.87 20.4107 31.8325 20.9491 31.8179 21.4255C31.6883 24.3932 30.7414 27.0848 29.0523 29.5066C28.0127 30.9926 26.7259 32.2832 25.2495 33.3205C25.1404 33.3943 25.0391 33.4794 24.9473 33.5744C28.174 32.8663 30.673 31.1063 32.3018 28.184C32.9537 27.0069 33.4614 25.7464 34.0293 24.5239C34.0594 24.4553 34.0896 24.3942 34.1425 24.27C36.71 28.7456 39.2556 33.174 41.8231 37.6488C41.6715 37.6645 41.5729 37.6803 41.467 37.6803H21.2431C21.0684 37.6785 20.8959 37.6416 20.7354 37.5718C17.6073 36.1964 15.2891 33.9275 13.6757 30.9061C12.836 29.3275 12.2722 27.6131 12.0094 25.8391C12.0021 25.7696 11.9793 25.7001 11.9638 25.6315C11.9352 25.6111 11.901 25.6004 11.8661 25.6009H11.8652ZM28.0681 25.4619C28.0297 21.4719 24.8258 18.2502 20.9399 18.2956C17.0467 18.3346 13.8501 21.5868 13.8958 25.4693C13.9414 29.5066 17.107 32.7125 21.023 32.6819C24.9016 32.6513 28.1055 29.3685 28.0681 25.4619Z" fill="white"/>
<path d="M18.1972 27.3608C18.5314 26.4154 18.8491 25.5081 19.1678 24.5933C19.228 24.4237 19.3047 24.2624 19.3412 24.0854C19.4024 23.7629 19.5841 23.6859 19.8945 23.6702C20.289 23.6479 20.4332 23.7934 20.5538 24.1549C20.8642 25.1392 21.2203 26.1152 21.5535 27.093C21.5837 27.1764 21.5992 27.2616 21.6293 27.3692H20.8642C20.8414 27.346 20.8268 27.3302 20.8112 27.3071C20.7126 27.0846 20.6442 26.7 20.5008 26.6694C20.1146 26.5767 19.6973 26.6305 19.2956 26.6462C19.2508 26.6462 19.2052 26.7537 19.1751 26.8149C18.9021 27.4229 18.9021 27.4229 18.1981 27.3617L18.1972 27.3608ZM20.3794 25.9613C20.2278 25.4775 20.0918 25.0391 19.9174 24.4858C19.7439 25.0465 19.5996 25.4933 19.4554 25.9622H20.3794V25.9613ZM21.8795 27.3923C22.0311 26.9614 22.1671 26.5767 22.2958 26.193C22.5606 25.4312 22.8181 24.6702 23.0911 23.9167C23.1285 23.8166 23.2801 23.6859 23.3641 23.6943C23.6134 23.7239 23.9777 23.5015 24.1064 23.8398C24.5383 24.9928 24.9245 26.1698 25.3408 27.384C25.0907 27.384 24.8715 27.4155 24.6743 27.3692C24.583 27.346 24.4552 27.1995 24.4397 27.1004C24.3785 26.7 24.1749 26.5535 23.7951 26.6231C23.7075 26.6384 23.6179 26.6384 23.5303 26.6231C23.1066 26.5619 22.8035 26.6536 22.7268 27.1606C22.7122 27.2533 22.5077 27.346 22.3707 27.3766C22.2356 27.4155 22.084 27.3923 21.8795 27.3923ZM24.0681 25.9696C23.9165 25.4849 23.7805 25.0391 23.6061 24.4932C23.4326 25.0465 23.2801 25.4933 23.1285 25.9696H24.069H24.0681ZM15.501 24.3394V23.7249H18.4255V24.3088H17.38V27.3692H16.6076V24.3384H15.501V24.3394ZM26.5223 27.3766H25.8184V23.7174H26.5223V27.3784V27.3766Z" fill="white"/>
</svg>
