<svg width="104" height="23" viewBox="0 0 104 23" fill="none" xmlns="http://www.w3.org/2000/svg">
<g clipPath="url(#clip0_37_489)">
<path d="M64.6001 22.2856C64.5077 22.285 64.5083 22.1936 64.4178 22.193C62.3202 20.9912 62.4117 20.9918 63.7052 18.9862C64.7217 17.4371 65.0988 15.6097 64.5615 13.7766C64.3826 13.1354 64.1123 12.4927 64.1162 11.8526C64.0295 10.9376 64.6745 10.3006 65.4975 10.3057C66.5042 10.312 66.5911 11.044 66.4951 11.7759C66.3971 12.6897 66.5758 13.5147 67.3033 14.1594C67.5768 14.4354 67.7569 14.8946 68.0284 15.3535C67.5706 15.4421 67.2034 15.5313 66.9279 15.7125C66.9273 15.8048 66.8353 15.8948 66.8348 15.9862C67.2917 16.1719 67.6552 16.5409 68.1119 16.6352C69.2089 16.8249 70.3062 16.8317 71.4032 17.0214C72.226 17.2094 72.9552 17.5797 73.5924 18.0418C73.7757 18.1343 73.6808 18.6824 73.77 19.0497C73.4957 19.048 73.2199 19.1368 72.9456 19.1351L65.8113 18.8164C65.5361 18.8147 65.0772 19.0862 64.984 19.3609C64.8909 19.6346 64.9784 20.2753 65.2521 20.3693C65.8908 20.7381 66.5281 21.1993 67.2599 21.2962C68.8127 21.5802 70.3669 21.7727 71.921 22.1481L69.7229 22.4088C67.9852 22.3066 66.2469 22.2958 64.6001 22.2856ZM102.606 16.575C102.515 16.5745 102.331 16.6648 102.331 16.7562C102.052 17.486 101.499 18.0312 100.585 18.0256C99.7614 17.929 98.6711 16.642 98.4928 15.9085C98.4042 15.4507 98.0407 15.0827 97.6767 14.8052C96.8562 14.2514 95.8521 13.9709 95.1236 13.3262C94.6687 12.9567 94.1246 12.2209 94.2195 11.6728C94.2223 11.2156 95.0475 10.855 95.5996 10.3097C96.3223 11.8697 97.508 12.5171 98.7857 13.0737C100.153 13.7232 101.706 14.0987 102.613 15.4768L102.606 16.575ZM23.5422 18.4625C17.9607 18.4279 15.0476 16.0313 14.157 12.1825C13.2671 8.24214 14.5711 4.4078 17.4201 2.41191C21.9223 -0.760617 29.5955 1.11588 30.3782 7.89118C30.6401 9.90638 30.5361 11.9184 29.7018 13.743C28.2168 17.119 25.5547 18.475 23.5422 18.4625ZM26.524 9.78938C26.1659 8.4146 25.9909 7.13239 25.3577 6.03023C24.0005 3.55193 20.7069 3.53148 19.2282 5.90073C17.8426 7.99622 17.9119 11.5657 19.3627 13.6788C20.9045 15.8839 23.9238 15.9027 25.2197 13.5323C25.7751 12.4375 26.058 11.0667 26.524 9.78938ZM32.8768 18.1547L32.9813 1.31979L43.1366 1.38285C43.3189 1.47634 43.3189 1.47634 43.3183 1.56686C43.7562 4.68047 43.7562 4.68047 40.6463 4.66116L37.0774 4.639L37.0553 8.20696L43.0025 8.24389C43.0875 9.4341 43.0812 10.4408 43.1649 11.5396L37.0348 11.5015C37.0229 13.4227 36.9207 15.1604 37.0007 16.9906C37.0863 18.0894 36.7168 18.5443 35.6197 18.3546C34.6141 18.1655 33.7921 18.1604 32.8768 18.1547ZM4.78101 4.43938L1.12068 4.41665C0.480612 4.41268 0.300011 4.04486 0.303985 3.40479C0.413605 0.477464 -0.0470023 1.02418 2.51421 1.04009L13.3114 1.10713C13.4013 1.19913 13.4922 1.29114 13.4916 1.38258C13.929 4.58763 13.929 4.58763 10.7273 4.4763L8.98997 4.46552L8.91271 16.9086C8.9076 17.7316 8.72245 18.0962 7.80806 18.0905C4.78723 18.1641 4.78723 18.1641 4.80599 15.1438L4.86053 6.36017C4.86393 5.81246 4.86791 5.17146 4.78194 4.43846L4.78101 4.43938ZM49.3376 4.71513L45.5868 4.69184C45.3125 4.69013 44.9481 4.3221 44.8578 4.13866C44.7714 3.31421 44.8686 2.40039 44.8742 1.48508C45.1491 1.39534 45.332 1.39648 45.4234 1.39705L58.2332 1.47659C58.227 2.48334 58.3127 3.3983 58.2156 4.31212C58.2145 4.49684 57.6626 4.85826 57.3883 4.85656C56.1981 4.94154 55.01 4.84179 53.6375 4.83327L53.5602 17.2764C53.5545 18.1907 53.2785 18.4643 52.3632 18.4586C49.4353 18.4404 49.4353 18.4404 49.4535 15.5125L49.5074 6.82121C49.5114 6.18021 49.424 5.53957 49.3376 4.71513ZM89.1656 15.0266L89.1542 16.8573C89.2415 17.6808 88.9634 18.1372 88.049 18.1315C87.2246 18.2179 86.5868 17.8472 86.5005 17.0228C86.4109 16.5659 86.4138 16.1078 86.416 15.742L87.0014 9.98203C87.0991 8.97584 87.5585 8.61293 88.4733 8.71005C89.8447 8.90145 91.1257 8.9094 92.4956 9.19224C92.9532 9.28652 93.2235 9.9283 93.5864 10.3887C93.2195 10.5693 92.8521 10.8413 92.4848 10.9305C92.1185 11.0197 91.6619 10.9254 91.2961 10.9231C90.1065 10.9157 89.3704 11.6427 89.2707 12.8318C89.1747 13.5636 89.1702 14.2951 89.1656 15.0276L89.1656 15.0266ZM83.3903 16.912C82.8393 17.2753 82.1944 17.9114 81.6452 18.0003C80.1801 18.1741 78.6232 18.2559 77.2539 17.8807C75.0619 17.3184 74.0733 14.3843 75.3663 12.4711C75.92 11.6506 76.5646 10.9231 77.2093 10.1956C77.6708 9.64884 78.3112 9.74426 78.3981 10.4773C78.4839 11.3922 78.5691 12.3995 78.2887 13.2217C77.823 14.5904 77.8184 15.3229 79.1875 15.88C80.1915 16.3435 81.472 16.4438 82.5681 16.6335L83.3005 16.638C83.3005 16.638 83.3914 16.73 83.3903 16.9129L83.3903 16.912ZM58.8256 9.16605C60.9322 8.90481 62.0244 9.73457 62.0113 11.8395C62.0011 13.4863 61.9903 15.2246 61.7972 16.8703C61.6989 17.9679 60.9651 18.3291 59.9607 17.9562C59.5955 17.8625 59.2322 17.3116 59.2339 17.0373C59.1498 15.8471 59.341 14.6595 59.2566 13.3779C59.1737 12.0048 58.9993 10.6311 58.8256 9.16605Z" fill="white"/>
<path d="M68.7028 9.95986C70.4445 9.42109 71.8149 9.61249 73.092 10.2614C73.3652 10.446 73.5444 11.1787 73.4502 11.6362C73.4462 12.2763 73.1664 13.0061 72.9795 13.646C72.7944 14.0106 72.5172 14.4661 72.2418 14.6482C71.4156 15.0088 70.591 15.278 69.5825 15.5461C71.6102 13.2717 69.6993 11.612 68.7028 9.95893L68.7028 9.95986ZM82.8639 13.1587C82.4073 13.0635 81.9506 12.9692 81.586 12.7841C80.8547 12.5966 80.5821 12.3206 81.0439 11.5919C81.1374 11.4087 81.0473 11.0424 80.957 10.8589C80.9598 10.4017 80.5975 9.84991 80.7815 9.66817C81.1495 9.30468 81.7928 8.94291 82.2494 9.03718C83.6202 9.32002 84.5293 10.3325 85.069 11.6169C85.1597 11.8918 84.6056 12.6208 84.1467 12.8914C83.8712 13.0726 83.3226 13.0692 82.8639 13.1578L82.8639 13.1587ZM58.6619 6.05415C59.3069 5.41806 59.6789 4.41358 60.7722 5.06047C61.1377 5.24562 61.4052 6.34552 61.2212 6.52726C60.3017 7.34545 59.4824 6.60883 58.6619 6.05415ZM96.0099 17.9972C95.0014 18.2662 94.5454 18.0804 94.6408 17.44C94.6419 17.2571 94.9179 16.9845 95.1019 16.8028C95.2826 17.1697 95.5546 17.5371 96.0099 17.9972ZM98.7905 9.90191C97.782 10.17 97.326 9.98426 97.4214 9.34383C97.4225 9.16096 97.6986 8.88834 97.8826 8.7066C98.0641 9.0735 98.3361 9.44096 98.7905 9.90191Z" fill="white"/>
</g>
<defs>
<clipPath id="clip0_37_489">
<rect width="103.448" height="22.1674" fill="white" transform="translate(0.137695) rotate(0.355769)"/>
</clipPath>
</defs>
</svg>
