<svg width="128" height="25" viewBox="0 0 128 25" fill="none" xmlns="http://www.w3.org/2000/svg">
<g clipPath="url(#clip0_37_492)">
<path d="M49.8657 9.32595L49.8657 1.91669C49.3776 1.83891 48.8896 1.73521 48.4015 1.65743L48.4015 1.34817C49.455 1.24539 50.5075 1.14169 51.7405 1.03799L51.7405 16.9945C52.2535 17.1241 52.6393 17.226 53.0242 17.3047L53.0242 17.6658C52.0481 17.7176 51.0978 17.7685 50.0452 17.8463C49.9937 17.4334 49.943 17.0972 49.8915 16.7102C47.5037 18.4917 45.5266 18.4398 43.9335 16.6584C42.2649 14.8 42.2142 11.263 43.8055 9.3778C45.2696 7.64817 47.5037 7.62225 49.8657 9.32595ZM44.8332 12.9148C44.8589 13.6121 44.7816 14.3093 44.8589 14.9797C44.9869 16.1426 45.3212 17.201 46.6822 17.4852C47.7597 17.6917 49.198 17.0463 49.6087 15.8584C50.3022 13.8185 50.3537 11.7009 49.3012 9.73891C48.71 8.62873 47.6068 8.26762 46.4253 8.5778C45.3461 8.86114 44.9612 9.81669 44.8589 10.8491C44.7816 11.5463 44.8332 12.2435 44.8332 12.9148ZM109.617 17.8722C109.574 17.4824 109.514 17.0947 109.437 16.7102C107.024 18.5435 105.047 18.4917 103.403 16.5806C101.734 14.6454 101.812 10.9528 103.583 9.22317C105.278 7.57039 107.332 7.62132 109.386 9.42965L109.386 1.91669C108.949 1.83891 108.462 1.78706 107.974 1.70928C107.974 1.6065 107.948 1.5028 107.948 1.40002C109.027 1.27039 110.079 1.16762 111.286 1.03891L111.286 16.9426C111.749 17.0972 112.134 17.2269 112.518 17.3297C112.518 17.4334 112.544 17.5361 112.544 17.6398C111.62 17.7176 110.67 17.7945 109.617 17.8713L109.617 17.8722ZM104.327 12.9148C104.379 13.6639 104.379 14.4898 104.507 15.2908C104.662 16.3491 105.072 17.3047 106.304 17.4852C107.409 17.6658 108.821 16.9426 109.206 15.7815C109.848 13.8704 109.848 11.8824 109.052 9.99725C108.564 8.83521 107.358 8.29354 106.202 8.50002C105.047 8.73151 104.662 9.63614 104.456 10.6426C104.353 11.3917 104.379 12.1148 104.327 12.9148ZM61.9087 16.6074C61.8314 17.0722 61.7798 17.4074 61.754 17.6398L58.7759 17.6398C58.7759 17.5361 58.7759 17.4334 58.7502 17.3297C59.1351 17.2269 59.52 17.1491 60.0081 17.0204L60.0081 1.91576C59.5974 1.83891 59.1866 1.76113 58.7502 1.65836C58.7502 1.55465 58.7244 1.45188 58.7244 1.34817C59.7005 1.24539 60.7015 1.11669 61.8314 0.987061L61.8314 9.40373C63.1408 8.29262 64.373 7.49262 65.8371 8.13891C66.7101 8.52595 67.6346 9.01669 68.2249 9.73891C69.8429 11.7787 69.586 14.9797 67.8658 16.7111C66.1456 18.4398 64.2965 18.4148 61.9078 16.6074L61.9087 16.6074ZM67.1982 13.0445C67.1208 12.2695 67.0692 11.4176 66.9155 10.5658C66.7101 9.42965 66.1705 8.55188 64.8619 8.50002C63.7569 8.44817 62.2679 9.32595 62.1399 10.4102C61.9301 12.055 61.9128 13.7188 62.0883 15.3676C62.2172 16.6324 63.5525 17.5102 64.7846 17.4852C66.1198 17.4593 66.7359 16.5815 66.967 15.3935C67.0692 14.6445 67.1208 13.8704 67.1972 13.0445L67.1982 13.0445ZM1.79753 2.32965C1.18055 2.25188 0.616058 2.20002 0.0515683 2.1491C0.0515683 2.04539 0.0515683 1.96762 0.0773525 1.86484L6.1882 1.86484C6.21399 1.94169 6.21399 2.01947 6.23977 2.09632C5.62279 2.1741 5.00673 2.25188 4.33911 2.35558L4.33911 17.0713C4.98187 17.1491 5.59793 17.2009 6.21399 17.2787L6.21399 17.5361L0.0257842 17.5361C0.0257842 17.4334 -1.56399e-09 17.3556 -1.55417e-09 17.2528C0.590273 17.175 1.18147 17.0972 1.82331 17.0204C1.79753 12.1148 1.79753 7.23521 1.79753 2.32965ZM95.0322 17.0463C95.546 17.1491 95.9052 17.2269 96.2652 17.3037L96.2652 17.563L91.9767 17.563C91.951 17.5111 91.951 17.4593 91.9252 17.3815C92.2852 17.2519 92.6444 17.1232 93.0293 16.9945L93.0293 8.91299C92.6186 8.83521 92.2337 8.73243 91.823 8.65465C91.823 8.55188 91.7972 8.44817 91.7972 8.34539C92.7982 8.24169 93.7743 8.13891 94.8784 8.00928C94.93 8.65465 94.9557 9.30002 95.0064 10.101C95.2633 9.81669 95.4429 9.63614 95.5718 9.42965C96.4448 8.11299 97.7027 7.77688 99.1411 8.00928C100.476 8.21576 101.118 8.96484 101.144 10.4102C101.169 12.6047 101.144 14.7741 101.144 16.9935C101.606 17.1232 101.991 17.2269 102.376 17.3297C102.376 17.4074 102.376 17.4852 102.35 17.5621L98.2165 17.5621C98.1907 17.4852 98.1649 17.4324 98.1649 17.3556C98.5241 17.226 98.8841 17.1241 99.3206 16.9685C99.3206 14.6963 99.3971 12.3732 99.2949 10.075C99.2433 8.75836 98.165 8.24169 97.0093 8.91299C95.7514 9.63521 95.1611 10.8759 95.058 12.2185C94.9042 13.7926 95.0322 15.3935 95.0322 17.0463ZM16.0995 17.0204C16.5875 17.1232 16.9466 17.175 17.3058 17.2519L17.3058 17.5111L13.0698 17.5111C13.0412 17.4639 13.0235 17.4107 13.0182 17.3556C13.3774 17.2528 13.7374 17.1491 14.2246 16.9945C14.2246 14.6445 14.2771 12.2445 14.1997 9.86854C14.1481 8.73243 13.044 8.26762 11.9915 8.88706C10.6047 9.66206 10.0393 11.0047 9.93796 12.5537C9.85968 13.9991 9.91125 15.4704 9.91125 16.9945C10.3477 17.1241 10.7336 17.226 11.1443 17.3297C11.1443 17.4074 11.1185 17.4852 11.1185 17.5621L6.88161 17.5621C6.85583 17.4852 6.85583 17.4324 6.83004 17.3556C7.18918 17.226 7.54832 17.1241 7.95994 16.9685L7.95994 8.91299C7.57303 8.81604 7.18775 8.71263 6.80426 8.6028L6.80426 8.34539C7.78037 8.24169 8.75649 8.13891 9.8339 8.03521C9.85968 8.65558 9.91125 9.2741 9.96282 10.075C10.2197 9.79076 10.4251 9.63614 10.5531 9.42965C11.4003 8.18984 12.6075 7.82873 14.0201 8.03521C15.3554 8.21577 16.0737 8.99076 16.0995 10.3593C16.1252 12.5019 16.0995 14.6963 16.0995 17.0204ZM120.042 9.06762C120.299 9.42873 120.582 9.63614 120.607 9.89447C120.658 10.2815 120.684 10.8241 120.478 11.0565C120.273 11.288 119.631 11.3917 119.374 11.2371C119.092 11.0815 118.861 10.5398 118.886 10.1787C118.912 9.79076 119.143 9.35188 119.426 9.04262C120.478 7.85465 123.971 7.46762 125.178 8.50002C125.614 8.88706 125.871 9.66206 125.923 10.2815C126.025 12.0889 125.948 13.8963 125.974 15.7037C125.974 16.1426 126.179 16.5815 126.282 17.0204C126.667 16.788 127.078 16.5297 127.463 16.2972C127.54 16.3232 127.617 16.375 127.694 16.4C127.258 16.8908 126.898 17.5361 126.359 17.8204C125.281 18.4408 124.536 17.7435 124.202 17.1232C122.816 17.4593 121.608 17.8982 120.402 17.975C119.272 18.0528 118.296 17.4334 118.091 16.1685C117.911 15.0065 118.27 13.8963 119.298 13.4315C120.684 12.7861 122.224 12.4241 123.945 11.8565C123.894 11.0306 124.613 9.66206 123.38 8.81021C122.353 8.11299 121.172 8.4491 120.042 9.06762ZM124.073 12.5019C122.918 12.863 121.865 13.0704 120.941 13.5084C119.94 13.9732 119.811 15.0065 120.093 15.9621C120.35 16.8648 121.12 17.175 122.019 17.0972C123.047 16.9945 123.868 16.5556 124.048 15.4972C124.177 14.5935 124.073 13.6898 124.073 12.5019Z" fill="white"/>
<path d="M72.539 17.0464L74.3365 17.3047C74.3365 17.4075 74.3107 17.5362 74.3107 17.6399L68.9955 17.6399C68.9697 17.5362 68.9697 17.4593 68.9439 17.3556C69.4826 17.2528 70.0223 17.1751 70.6383 17.0723L70.6383 1.88989C70.0738 1.83804 69.5342 1.78618 68.9697 1.70841C68.9697 1.5797 68.9697 1.47692 68.9439 1.34729C70.1418 1.2384 71.3402 1.13501 72.539 1.03711L72.539 17.0464ZM41.726 14.5927C41.7518 16.9167 39.5435 18.0788 37.5913 18.001C34.9981 17.8982 32.9695 15.8325 32.9695 13.2769C32.9437 10.4103 34.9466 8.06118 37.4891 7.98341C40.108 7.90655 41.725 9.37785 41.9313 12.1917L35.4853 12.1917C34.8186 14.4899 35.3582 16.6075 36.7192 17.2528C38.3878 18.0528 39.9027 17.2788 41.726 14.5936L41.726 14.5927ZM39.6715 11.5204C39.8004 10.4621 39.8511 9.37785 38.8501 8.88711C38.2083 8.57785 37.2322 8.55192 36.5903 8.83526C35.4853 9.27507 35.1519 10.3075 35.384 11.5204L39.6715 11.5204Z" fill="white"/>
<path d="M76.2367 12.1916C75.954 15.3935 76.4669 16.8139 77.931 17.3555C79.5748 17.924 80.8585 17.2009 82.5538 14.7481C82.8871 16.1685 81.4745 17.6139 79.4717 17.924C76.6216 18.3629 74.1049 16.4259 73.9253 13.612C73.7199 10.4879 75.8517 7.9833 78.7276 7.9833C81.167 7.9833 82.9387 9.76478 82.7582 12.2176C80.6016 12.1916 78.4449 12.1916 76.2367 12.1916ZM76.2882 11.4694L80.6273 11.4694C80.7811 9.48145 80.1908 8.57774 78.7782 8.49997C77.1612 8.42219 76.3389 9.37775 76.2882 11.4694ZM89.5376 17.7685C89.486 17.4592 89.4087 17.149 89.3838 16.8398C88.9989 12.5277 88.5624 8.21571 88.2281 3.9046C88.1836 3.14071 88.2971 2.37583 88.5615 1.6583C88.7162 1.27034 89.3323 0.883301 89.7172 0.883301C90.1279 0.883301 90.6675 1.29626 90.8986 1.6583C91.1814 2.14904 91.3093 2.81941 91.2578 3.38793C90.8729 8.03608 90.4622 12.7083 90.0257 17.3555C89.9999 17.5111 89.9225 17.6398 89.8461 17.7685L89.5376 17.7685ZM24.137 9.32589C22.1857 7.72497 19.8494 8.44812 19.4636 10.7722C19.2334 12.0889 19.3347 13.5083 19.413 14.8509C19.4894 16.1426 20.1054 17.1231 21.4923 17.4333C22.8791 17.7435 23.9058 17.1231 24.7024 16.0648C25.01 15.6259 25.2669 15.1611 25.626 14.5676C25.5754 17.2268 22.6737 18.6722 20.0548 17.6916C17.4607 16.7361 16.305 13.5083 17.5381 10.7981C18.6938 8.29349 21.8008 7.1833 24.137 8.55182C24.7282 8.91293 25.2153 9.61015 25.498 10.2814C25.6269 10.6176 25.2678 11.3398 24.9077 11.624C24.6766 11.8046 23.8027 11.65 23.7014 11.4435C23.4951 11.0046 23.6241 10.4102 23.6747 9.89441C23.7005 9.71386 23.9325 9.5583 24.137 9.32589ZM29.1179 8.00923L29.1179 9.94534C29.6576 9.37775 29.9651 8.81015 30.4532 8.55182C31.0702 8.24163 31.8142 8.03515 32.457 8.11293C32.7645 8.13886 33.1246 8.887 33.2268 9.37774C33.2784 9.5583 32.6365 10.1527 32.457 10.1C32.0205 9.94626 31.6862 9.5583 31.3271 9.22311C31.2497 9.14534 31.3013 8.93886 31.2497 8.49997C28.2201 10.9787 29.4522 14.1546 29.0931 17.0463C29.7607 17.149 30.3252 17.2268 30.8906 17.3046L30.8906 17.562L25.8304 17.562C25.8056 17.4852 25.8056 17.4074 25.7798 17.3305C26.2421 17.2527 26.6786 17.175 27.2173 17.0972L27.2173 8.91293C26.7375 8.83981 26.2583 8.76265 25.7798 8.68145L25.7798 8.34534C26.8323 8.24163 27.8849 8.13886 29.1179 8.00923ZM116.576 17.0203C117.14 17.15 117.552 17.2518 117.963 17.3296C117.963 17.4074 117.937 17.4852 117.937 17.562L113.212 17.562C113.212 17.4852 113.186 17.3814 113.186 17.3046C113.649 17.2268 114.111 17.1231 114.65 17.0453L114.65 8.88886C114.137 8.81108 113.674 8.7333 113.186 8.65552L113.186 8.32034C114.265 8.21663 115.343 8.13978 116.602 8.01015C116.576 11.0564 116.576 14.0259 116.576 17.0213L116.576 17.0203ZM56.9786 17.0203C57.5174 17.1231 57.929 17.2009 58.3397 17.3037L58.3397 17.537L53.6663 17.537C53.6405 17.4592 53.6405 17.4074 53.6147 17.3296C54.077 17.2268 54.5135 17.149 55.0273 17.0203L55.0273 8.86108C54.5393 8.78423 54.077 8.70645 53.589 8.6296C53.589 8.52589 53.589 8.42219 53.5632 8.31941C54.6415 8.21571 55.7207 8.11293 56.9529 8.00923C56.9786 11.0305 56.9786 14.025 56.9786 17.0203ZM89.6407 19.8342C90.9244 19.8083 92.0285 20.8157 92.0028 22.0027C92.0028 23.2157 90.8977 24.275 89.6914 24.249C88.5108 24.2231 87.4832 23.2166 87.4832 22.0287C87.4832 20.8416 88.4593 19.8602 89.6407 19.8342Z" fill="white"/>
</g>
<defs>
<clipPath id="clip0_37_492">
<rect width="128" height="25" fill="white"/>
</clipPath>
</defs>
</svg>
