<svg width="57" height="37" viewBox="0 0 57 37" fill="none" xmlns="http://www.w3.org/2000/svg">
<path d="M51.5573 17.6832C50.6747 19.0522 49.6965 19.9347 48.0619 19.9032C45.1255 19.8486 42.178 19.881 39.2425 19.9032C38.9842 19.9032 38.4886 20.1067 38.4997 20.1826C38.5429 20.6136 38.9299 20.5711 39.2535 20.5711H48.6107C48.3956 21.5192 47.1471 22.5645 46.0724 22.7263C45.8942 22.7516 45.7146 22.7658 45.5346 22.7689C42.361 22.7689 39.1883 22.78 36.0156 22.7689C34.2081 22.7578 32.4981 21.5081 31.9392 19.8061C32.2186 19.6766 32.5092 19.5471 32.7886 19.4074C34.6494 18.513 36.3272 17.3595 37.607 15.7C38.3927 14.6908 38.9508 13.5217 39.2425 12.2738C39.3069 12.0037 39.3924 11.8751 39.693 11.8853C45.427 11.8964 51.1702 11.8964 56.9033 11.8964C56.9355 11.8964 56.9677 11.9177 56.9999 11.9288C56.5586 13.1896 55.3542 14.073 54.0524 14.073H42.3839C42.2221 14.073 42.0392 14.0304 41.8994 14.0841C41.7064 14.159 41.5556 14.3097 41.3837 14.4282C41.5556 14.5475 41.7275 14.7084 41.9215 14.7843C42.0613 14.8379 42.2433 14.7954 42.4051 14.7954H54.1829C53.7738 16.0876 52.5695 17.0043 51.2999 17.0043C47.7723 17.0043 44.2337 16.9932 40.7061 17.0145C40.4478 17.0145 39.9633 17.2198 39.9633 17.3169C39.9854 17.7693 40.3935 17.6934 40.7061 17.6934H50.8678C51.0406 17.6832 51.2337 17.6832 51.5573 17.6832ZM25.249 19.795C24.7112 21.4757 23.0012 22.7152 21.2149 22.7578C20.495 22.78 19.7844 22.7578 19.0636 22.7578C16.6117 22.7578 14.1487 22.7689 11.6968 22.7578C10.3306 22.7578 9.06101 21.8855 8.52319 20.56H17.8271C18.1718 20.56 18.6986 20.6571 18.6876 20.1826C18.6765 19.7414 18.1498 19.8921 17.8381 19.8921C14.955 19.881 12.0618 19.8385 9.17961 19.9023C7.52293 19.9347 6.52268 19.0624 5.6401 17.7045C5.90947 17.6934 6.09242 17.6721 6.27537 17.6721C9.60987 17.6721 12.9444 17.6721 16.2779 17.661C16.6439 17.661 17.246 17.834 17.246 17.3058C17.246 16.8211 16.6549 16.9821 16.311 16.9821C12.8359 16.9719 9.36256 16.9719 5.87729 16.9719C4.64076 16.9719 3.44651 16.0562 3.03832 14.763H14.9228C15.2676 14.763 15.7944 14.8703 15.7944 14.3958C15.7944 13.8898 15.2565 14.0517 14.9339 14.0517C11.1158 14.0406 7.29769 13.9758 3.47869 14.073C1.80087 14.1164 0.941273 13.1997 0.123047 11.9075C0.316111 11.8853 0.44574 11.864 0.575369 11.864H17.3435C17.5798 11.864 17.8381 11.778 17.9245 12.1545C18.7096 15.4734 20.9354 17.5639 23.8176 19.0948C24.0548 19.2243 24.3021 19.3316 24.5393 19.45C24.7755 19.5795 25.0017 19.6766 25.249 19.795ZM26.0985 36.7558C24.9796 36.7558 23.9472 36.7669 22.9148 36.7345C22.7962 36.7345 22.6132 36.4866 22.581 36.3247C22.3981 35.3868 22.4202 35.3766 21.4732 35.3766C20.6991 35.3766 19.9351 35.3979 19.161 35.3655C18.774 35.3554 18.5368 35.4738 18.4513 35.8502C18.2895 36.6272 17.8271 36.8418 17.0631 36.766C16.1924 36.6911 15.3108 36.7447 14.3639 36.7447C14.4604 36.519 14.5247 36.3562 14.6001 36.2063C16.3322 32.6608 18.0753 29.1264 19.7954 25.5707C19.9673 25.2044 20.1723 25.086 20.5704 25.0962C21.5054 25.1286 22.4303 25.0962 23.3662 25.1184C23.5169 25.1184 23.7753 25.2904 23.8075 25.4199C24.5816 29.1699 25.3244 32.9198 26.0985 36.7558ZM21.441 28.8785C21.3978 28.8683 21.3445 28.8572 21.3013 28.8461C20.7423 30.204 20.1723 31.5508 19.5913 32.9522H22.0221C21.829 31.5619 21.635 30.2253 21.441 28.8785ZM37.0802 36.7558C38.0694 34.73 38.9952 32.8116 39.9302 30.8941C40.7907 29.1366 41.6623 27.392 42.5007 25.6243C42.6947 25.2146 42.9209 25.086 43.3612 25.1073C44.276 25.1397 45.1907 25.1073 46.1046 25.1286C46.2544 25.1286 46.5128 25.3015 46.5348 25.4301C47.2979 29.1588 48.0407 32.8875 48.7827 36.6152C48.7827 36.6374 48.7827 36.6476 48.7606 36.7447C47.6849 36.7447 46.6093 36.7558 45.5235 36.7345C45.4371 36.7345 45.3194 36.519 45.2873 36.3895C45.2229 36.0769 45.1898 35.7531 45.1475 35.3868C43.9432 35.3868 42.7811 35.3655 41.6301 35.409C41.4793 35.409 41.243 35.6782 41.1998 35.8613C41.0159 36.6263 40.5655 36.8418 39.8015 36.7771C38.9299 36.7021 38.0483 36.7558 37.0802 36.7558ZM44.7706 32.9633C44.5665 31.5508 44.3725 30.204 44.1684 28.8563C44.1252 28.8563 44.082 28.8471 44.0397 28.8471C43.4739 30.2209 42.9039 31.593 42.3297 32.9633H44.7706ZM29.6371 36.7558C30.0784 33.8032 30.4976 30.9468 30.9279 28.0053H27.6255C27.8094 27.0359 27.9703 26.1414 28.1744 25.2581C28.1955 25.1507 28.5081 25.0536 28.6902 25.0536C31.2938 25.0425 33.8854 25.0425 36.489 25.0425H38.3167C38.1347 26.0018 37.9839 26.874 37.7798 27.7472C37.7578 27.8444 37.5215 27.9627 37.3817 27.9627C36.6499 27.984 35.908 27.9739 35.1762 27.9739C35.0043 27.9739 34.8213 27.984 34.6062 27.9951C34.381 29.5251 34.1649 31.0338 33.9498 32.5424C33.7678 33.8032 33.5949 35.064 33.3908 36.3247C33.3697 36.4755 33.1978 36.7234 33.1003 36.7234C31.9713 36.7669 30.8525 36.7558 29.6371 36.7558ZM10.5136 25.1397H14.2673C14.0743 26.1313 13.8904 27.0896 13.6973 28.0488C13.1595 30.7433 12.6217 33.4369 12.105 36.1305C12.0195 36.5939 11.8798 36.7984 11.3631 36.7669C10.3518 36.7234 9.33039 36.7558 8.21153 36.7558C8.98563 32.844 9.74961 28.9969 10.5136 25.1397ZM37.5003 8.4915H33.7126C33.3577 6.96155 33.0139 5.47415 32.6691 3.96548C33.3467 3.53443 34.0996 3.04973 34.8958 2.54282C36.4881 4.14862 37.3597 6.12073 37.4985 8.49057L37.5003 8.4915ZM23.4636 8.4915H19.6878C19.8165 6.1531 20.6991 4.181 22.2804 2.54375C23.0867 3.04973 23.8507 3.54552 24.5393 3.97657C24.1835 5.46305 23.8406 6.93935 23.4636 8.49057V8.4915ZM24.5393 13.7927C23.8498 14.2348 23.0757 14.7195 22.2804 15.2264C20.7102 13.5772 19.8386 11.6161 19.6878 9.26665H23.4636C23.8406 10.8077 24.1844 12.2951 24.5393 13.7927ZM32.5524 13.7279C33.1224 12.3811 33.4662 10.9696 33.5637 9.51455C33.5738 9.41835 33.7135 9.2463 33.7999 9.2463C35.0153 9.2241 36.2197 9.23427 37.4893 9.23427C37.3496 11.6161 36.4559 13.5771 34.8967 15.2375C34.1116 14.7306 33.3586 14.2459 32.5524 13.7279ZM31.896 4.2883C32.5012 5.59556 32.8239 7.01712 32.8429 8.45913H28.9917V4.88123C29.9276 4.69807 30.8736 4.50383 31.896 4.28923V4.2883ZM25.2812 4.2883C26.3026 4.50383 27.2606 4.69808 28.2388 4.89232V8.45913H24.3563C24.3563 7.0041 24.7002 5.61383 25.2812 4.2883ZM28.9807 12.8233V9.27775H32.842C32.842 10.6893 32.5202 12.0037 31.9824 13.2543C31.9392 13.3505 31.724 13.4375 31.6165 13.4153C30.7339 13.2321 29.8743 13.0277 28.9807 12.8233ZM28.2277 9.27775V12.8233C27.3249 13.0277 26.4534 13.2432 25.5818 13.4153C25.4641 13.4375 25.238 13.3191 25.1837 13.2118C24.6458 11.9661 24.3607 10.6248 24.3453 9.26665C25.6682 9.27775 26.948 9.27775 28.2277 9.27775ZM29.7447 0C31.4114 0.2368 32.9394 0.894475 34.3911 2.05813C33.6381 2.54282 32.9495 2.97388 32.3363 3.37255C31.4335 2.18762 30.5831 1.0878 29.7447 0ZM27.4325 0C26.5931 1.08873 25.7547 2.16635 24.8399 3.36238C24.1555 2.92891 23.4742 2.49045 22.7962 2.04702C24.2377 0.894475 25.7547 0.2368 27.4334 0H27.4325ZM29.7447 17.7471C30.584 16.6805 31.4225 15.5918 32.3474 14.4078C32.9495 14.7732 33.6381 15.194 34.3911 15.6677C32.9606 16.8637 31.4225 17.4779 29.7447 17.7471ZM22.7962 15.6898C23.539 15.2153 24.2055 14.7833 24.8298 14.3856C25.7326 15.5604 26.583 16.6481 27.4224 17.7258C25.7767 17.5001 24.2377 16.8637 22.7962 15.6898ZM28.9917 0.3885C30.0563 1.30425 30.8948 2.3273 31.5622 3.6741C30.6796 3.84707 29.8734 4.01912 28.9917 4.1921V0.387575V0.3885ZM29.0027 13.5883C29.8734 13.7501 30.6806 13.9009 31.5622 14.0618C30.9058 15.3985 30.0885 16.4225 29.0027 17.3808V13.5883ZM25.614 14.0415C26.5177 13.8787 27.3461 13.739 28.2277 13.5772V17.3484C27.1098 16.4326 26.2814 15.3985 25.614 14.0406V14.0415ZM28.2277 4.1921C27.3359 4.01912 26.5177 3.85725 25.6259 3.6741C26.2925 2.3495 27.1309 1.31535 28.2277 0.3663V4.1921Z" fill="white"/>
</svg>
