<svg width="17" height="18" viewBox="0 0 17 18" fill="none" xmlns="http://www.w3.org/2000/svg">
<path d="M8.40133 17.9997C10.6093 17.9997 12.8164 17.9997 15.0227 17.9997C16.1284 17.9997 16.7147 17.4109 16.7211 16.2949C16.7211 15.3949 16.7031 14.4949 16.7275 13.5949C16.7481 12.8454 16.4472 12.3234 15.7761 11.9955C10.8287 9.58353 5.88307 9.58353 0.939122 11.9955C0.296272 12.3105 -0.0148678 12.8106 0.00056076 13.5383C0.0185604 14.4808 0.00056076 15.4245 0.00056076 16.3669C0.0108471 17.3954 0.617699 17.992 1.64497 17.9946C3.89923 17.998 6.15135 17.9997 8.40133 17.9997ZM8.35762 16.678C6.21692 16.678 4.07623 16.6703 1.92911 16.6845C1.50097 16.6845 1.30169 16.5752 1.31841 16.1085C1.34669 15.3165 1.29783 14.5219 1.3454 13.7338C1.36312 13.6066 1.40902 13.4849 1.47976 13.3777C1.55049 13.2705 1.64427 13.1804 1.75426 13.1141C6.16164 11.0038 10.572 11.0064 14.9854 13.1218C15.186 13.2182 15.3621 13.5653 15.3788 13.8071C15.4303 14.5322 15.3698 15.2638 15.4071 15.9928C15.4341 16.5212 15.2605 16.6999 14.7193 16.6935C12.5966 16.66 10.4765 16.6755 8.35762 16.6755V16.678Z" fill="white"/>
<path d="M3.86555 4.5156C3.87031 5.70594 4.34651 6.8459 5.1899 7.68591C6.03329 8.52593 7.17516 8.99756 8.3655 8.99755C8.96058 8.99759 9.54975 8.87959 10.0989 8.6504C10.6481 8.42121 11.1463 8.08537 11.5649 7.66232C11.9834 7.23927 12.3138 6.73742 12.537 6.18581C12.7603 5.6342 12.8719 5.04378 12.8655 4.44874C12.8599 3.85886 12.7382 3.27586 12.5073 2.73302C12.2764 2.19019 11.9408 1.69817 11.5197 1.28506C11.0986 0.871958 10.6002 0.545865 10.0531 0.325407C9.5059 0.104948 8.92067 -0.00555333 8.33079 0.000214707C7.74109 0.00341361 7.15779 0.122756 6.61422 0.351424C6.07065 0.580092 5.57745 0.913606 5.1628 1.33292C4.74814 1.75223 4.42016 2.24912 4.19757 2.79521C3.97499 3.3413 3.86217 3.92589 3.86555 4.5156ZM8.35265 1.32963C9.18568 1.33378 9.98421 1.66287 10.5783 2.24686C11.1723 2.83084 11.5151 3.62362 11.5335 4.45645C11.5669 6.18572 10.1192 7.66171 8.3745 7.67071C7.54155 7.66557 6.7434 7.33599 6.1495 6.75193C5.55561 6.16788 5.21273 5.37534 5.19368 4.54259C5.18955 3.69853 5.51933 2.88706 6.1111 2.28517C6.70287 1.68329 7.50863 1.3398 8.35265 1.32963Z" fill="white"/>
</svg>
