<svg width="16" height="16" viewBox="0 0 16 16" fill="none" xmlns="http://www.w3.org/2000/svg">
<path d="M12.6119 10.6214C13.536 11.5421 14.4754 12.4732 15.4098 13.4094C16.1102 14.1106 16.1937 14.9736 15.6257 15.563C15.0229 16.191 14.1477 16.1409 13.4255 15.4205C12.4886 14.4856 11.5607 13.5404 10.6122 12.5836C8.81299 13.656 6.94693 13.9745 4.96649 13.4184C3.39989 12.9921 2.04413 12.0065 1.15598 10.6483C0.263671 9.31522 -0.131741 7.71129 0.0387705 6.11655C0.209282 4.52181 0.934884 3.03757 2.08891 1.92293C3.24294 0.808289 4.75207 0.13407 6.35286 0.0179648C7.95365 -0.0981409 9.5444 0.351245 10.8474 1.28767C13.1697 2.94945 14.8764 6.59277 12.6119 10.6214ZM6.8287 1.58176C5.43146 1.5899 4.09424 2.15026 3.10912 3.14043C2.124 4.13059 1.57106 5.47009 1.57109 6.86631C1.57109 9.75067 3.96278 12.1136 6.87368 12.1098C9.70105 12.1098 12.1107 9.68774 12.1056 6.8509C12.0998 5.45589 11.5427 4.11965 10.5556 3.13322C9.56839 2.14679 8.23117 1.59007 6.83513 1.58433L6.8287 1.58176Z" fill="#FF6612"/>
</svg>
