<svg width="19" height="18" viewBox="0 0 19 18" fill="none" xmlns="http://www.w3.org/2000/svg">
<path opacity="0.568" d="M17.8038 16.6922L12.7762 11.6171C13.9155 10.1812 14.4611 8.3633 14.3007 6.53737C14.1404 4.71144 13.2863 3.01642 11.9141 1.80112C10.542 0.585808 8.75622 -0.0573391 6.92429 0.00401893C5.09236 0.065377 3.35363 0.826572 2.06588 2.13097C0.778138 3.43537 0.0393439 5.18373 0.00152658 7.0163C-0.0362908 8.84887 0.629745 10.6262 1.86258 11.9826C3.09542 13.3391 4.80127 14.1713 6.62911 14.3082C8.45695 14.4451 10.2677 13.8762 11.6888 12.7185L16.6836 17.7602C16.8249 17.9083 17.0192 17.9945 17.2238 17.9997C17.4285 18.005 17.6269 17.929 17.7756 17.7883C17.9239 17.6462 18.01 17.4513 18.0153 17.246C18.0206 17.0408 17.9445 16.8417 17.8038 16.6922ZM7.14532 12.7788C5.83645 12.7785 4.56817 12.3244 3.55657 11.4938C2.54496 10.6633 1.85261 9.50771 1.59748 8.22395C1.34234 6.94019 1.54021 5.60769 2.15736 4.45345C2.77452 3.29922 3.77278 2.39467 4.98207 1.89392C6.19136 1.39317 7.53686 1.32719 8.78934 1.70724C10.0418 2.08728 11.1238 2.88983 11.8509 3.97814C12.578 5.06646 12.9053 6.37322 12.777 7.67579C12.6487 8.97835 12.0727 10.1961 11.1472 11.1216C10.6228 11.6487 9.99908 12.0665 9.31217 12.3509C8.62527 12.6353 7.88878 12.7808 7.14532 12.7788Z" fill="#FF5723"/>
</svg>
