<svg width="40" height="40" viewBox="0 0 40 40" fill="none" xmlns="http://www.w3.org/2000/svg">
<rect width="40" height="40" rx="20" fill="#FF6612"/>
<path d="M24.6119 22.6214C25.536 23.5421 26.4754 24.4732 27.4098 25.4094C28.1102 26.1106 28.1937 26.9736 27.6257 27.563C27.0229 28.191 26.1477 28.1409 25.4255 27.4205C24.4886 26.4856 23.5607 25.5404 22.6122 24.5836C20.813 25.656 18.9469 25.9745 16.9665 25.4184C15.3999 24.9921 14.0441 24.0065 13.156 22.6483C12.2637 21.3152 11.8683 19.7113 12.0388 18.1166C12.2093 16.5218 12.9349 15.0376 14.0889 13.9229C15.2429 12.8083 16.7521 12.1341 18.3529 12.018C19.9537 11.9019 21.5444 12.3512 22.8474 13.2877C25.1697 14.9495 26.8764 18.5928 24.6119 22.6214ZM18.8287 13.5818C17.4315 13.5899 16.0942 14.1503 15.1091 15.1404C14.124 16.1306 13.5711 17.4701 13.5711 18.8663C13.5711 21.7507 15.9628 24.1136 18.8737 24.1098C21.701 24.1098 24.1107 21.6877 24.1056 18.8509C24.0998 17.4559 23.5427 16.1197 22.5556 15.1332C21.5684 14.1468 20.2312 13.5901 18.8351 13.5843L18.8287 13.5818Z" fill="white"/>
</svg>
