<svg width="51" height="60" viewBox="0 0 51 60" fill="none" xmlns="http://www.w3.org/2000/svg">
<path d="M33.335 28.9236C32.8737 29.504 32.4124 30.0849 31.9511 30.6664C31.5498 31.1745 31.1389 31.6765 30.7598 32.2005C30.6484 32.3543 30.6299 32.5743 30.5689 32.7635C30.7456 32.6698 30.9648 32.6159 31.0806 32.4754C32.4857 30.7715 33.8749 29.0553 35.2695 27.3427C35.6548 26.8681 36.0418 26.3944 36.5111 25.9861L22.9255 44.0072C22.7373 43.4124 22.5561 42.8504 22.3811 42.2865C21.6397 39.9049 21.9225 37.5144 22.5261 35.1849C23.4098 31.7878 24.4482 28.4332 25.415 25.0582C25.544 24.6075 25.6297 24.1444 25.7499 23.6911C25.8 23.5617 25.8634 23.438 25.939 23.3217C25.6244 23.1538 25.4972 23.3933 25.3505 23.5868C24.3121 24.9601 23.2817 26.3396 22.238 27.7103C18.6606 32.4064 15.0311 37.0619 11.1516 41.515C9.67221 43.2136 8.16721 44.8953 6.40771 46.3181C5.54165 47.0189 4.6155 47.6039 3.45251 47.6808C3.02198 47.7109 2.5898 47.6542 2.18159 47.5141C1.77337 47.374 1.39742 47.1534 1.07602 46.8654C0.754616 46.5774 0.494299 46.2278 0.310493 45.8373C0.126686 45.4468 0.023131 45.0234 0.00596296 44.5922C-0.0558982 43.1438 0.372711 41.7899 0.866716 40.4731C2.24357 36.7968 3.70968 33.1567 5.09183 29.4866C5.81649 27.5636 6.47133 25.6132 7.0979 23.654C7.26846 23.1237 7.25432 22.5237 7.26934 21.9537C7.28879 21.2467 6.91585 20.7659 6.30608 20.4416C5.40909 19.9644 4.42638 19.8804 3.44279 19.8071C2.40706 19.7293 1.37044 19.663 0.333827 19.5915L0.30378 19.4739C0.733273 19.3246 1.15216 19.1089 1.59403 19.0427C2.36199 18.9278 3.14409 18.9136 3.91824 18.8367C4.04815 18.8244 4.16922 18.7121 4.29382 18.6459L4.23992 18.4859L2.36641 18.2632C3.03967 17.9874 3.76501 17.862 4.49178 17.8956C5.18124 17.9251 5.86688 18.0138 6.54115 18.1607C7.22339 18.3092 7.88442 18.5593 8.59936 18.6821L7.11469 17.7171C7.43637 17.7727 7.67674 17.8196 7.918 17.854C8.19461 17.8938 8.47387 17.9574 8.74959 17.9468C9.00234 17.9362 9.25155 17.8399 9.58914 17.7621C10.0186 17.9892 10.586 18.1978 11.0455 18.5486C12.5823 19.7196 13.0268 21.3483 12.7697 23.1856C12.6327 24.1577 12.3649 25.1121 12.1573 26.0745C12.1374 26.1464 12.1456 26.2232 12.1802 26.2892L12.6681 25.3171L12.7626 25.349C12.5859 25.9411 12.471 26.5588 12.2271 27.1208C11.2214 29.4389 10.1609 31.7321 9.15611 34.0502C8.78406 34.9083 8.5048 35.8079 8.19196 36.6916C8.14433 36.831 8.12014 36.9774 8.12038 37.1247C8.12038 37.4631 8.32275 37.6019 8.60201 37.4154C8.91971 37.2029 9.21206 36.9547 9.47337 36.6757C10.7274 35.3289 11.9867 33.9857 13.2071 32.6106C17.2608 28.0381 21.2694 23.4277 25.0544 18.6273C25.3226 18.2951 25.6215 17.9889 25.947 17.7126C26.5948 17.1479 27.3495 16.8598 28.1899 17.1709C29.0851 17.5023 29.5261 18.2526 29.6984 19.1487C29.9087 20.2419 29.6101 21.3006 29.2672 22.3089C28.4409 24.7577 27.5386 27.1809 26.6451 29.6068C25.6262 32.3773 24.6196 35.1584 24.0929 38.0747C24.0611 38.2514 23.9992 38.4432 24.0505 38.5943C24.1156 38.7785 24.2445 38.9333 24.4137 39.0309C24.5021 39.0768 24.7425 38.9664 24.8344 38.8541C26.122 37.3403 27.3972 35.815 28.6742 34.2923C30.1317 32.5561 31.5893 30.8195 33.0469 29.0827C33.1123 29.0041 33.1865 28.9343 33.2572 28.86L33.335 28.9236Z" fill="#FF5723"/>
<path d="M29.0309 4.95373L24.8694 10.5106L24.9189 10.553L26.9117 8.24298L26.9824 8.29423L25.215 10.713C30.9787 10.7492 36.6778 10.6352 42.3717 10.842L42.4088 11.0188L41.2397 11.4359L41.6727 11.5685L39.7656 12.7473C40.0166 13.1282 40.6131 13.0628 40.7713 13.6116H38.4347V13.6947L40.1668 13.8379L40.1792 13.9033C39.8478 13.951 39.5181 14.0067 39.1859 14.0447C38.8059 14.0889 38.4241 14.1162 38.0423 14.1507C37.984 14.156 37.9106 14.1366 37.8656 14.1649C36.9615 14.7605 35.9576 14.4706 34.9899 14.4901C34.3881 14.5024 33.7854 14.5007 33.1827 14.5069C30.046 14.541 26.9097 14.574 23.7736 14.6058C23.52 14.6058 23.3317 14.6483 23.1833 14.8833C20.5904 19.0042 17.9472 23.0941 15.4179 27.2556C14.5598 28.6651 13.9845 30.2461 13.2784 31.7484C13.2104 31.8934 13.1565 32.0569 13.0522 32.1709C11.6912 33.6597 10.325 35.144 8.95345 36.624C8.84284 36.7481 8.69378 36.8315 8.53014 36.8608C8.73075 36.2546 8.88363 35.6236 9.13903 35.0465C10.2455 32.5473 11.4155 30.0764 12.4972 27.5657C13.0142 26.363 13.3306 25.0869 13.2926 23.7489C13.3049 23.5618 13.3761 23.3833 13.4958 23.239C15.6026 20.5153 17.715 17.7955 19.833 15.0795C19.9214 14.9682 20.0098 14.8603 20.0982 14.7517C15.7396 15.0981 11.4138 15.023 7.05254 15.0459C7.09761 14.8824 7.13384 14.7525 7.17185 14.6164C6.55323 14.2727 5.52899 14.5581 5.42471 13.4137L8.40377 13.2749L8.41702 13.13C8.14306 13.0876 7.86999 13.0337 7.59427 13.0063C7.11175 12.9577 6.62217 12.9462 6.14407 12.8799C5.81444 12.834 5.62443 12.6731 5.86039 12.3046C6.04951 12.0068 5.92579 11.8742 5.59527 11.8795C5.10922 11.8857 4.62317 11.8795 4.09293 11.8795L4.1813 11.5958C2.8451 11.2698 1.44174 11.6038 0.11084 11.2945V11.1292C0.302609 11.1089 0.494379 11.0744 0.686148 11.0709C7.90151 10.9684 15.1186 10.8715 22.3375 10.7802C23.1064 10.7722 23.6561 10.5663 24.1845 9.96272C25.6126 8.33665 27.1274 6.78747 28.6032 5.20559C28.7128 5.08806 28.8038 4.95196 28.9037 4.82471L29.0309 4.95373Z" fill="#42A148"/>
<path d="M11.003 42.2988C10.6911 43.863 10.4905 45.4069 10.5382 46.972C10.5877 48.6078 10.7149 50.2418 11.3282 51.7804C11.8841 53.1784 12.7979 54.2866 14.279 54.7276C14.9074 54.915 15.617 54.8717 16.2877 54.8593C17.2104 54.8425 18.1312 54.7559 19.0609 54.6985L17.5356 55.1536C19.7378 55.1942 21.7253 54.3238 23.8101 53.8342C23.2613 54.0374 22.708 54.2301 22.1645 54.4484C21.5804 54.6825 20.9768 54.8222 20.4156 55.1712C19.2465 55.8977 17.8944 56.1433 16.5343 56.2008C15.3775 56.2459 14.2172 56.1672 13.0365 56.1831C13.8637 56.3457 14.6847 56.5799 15.5189 56.6559C18.176 56.8963 20.6543 56.3248 22.9537 54.9415C23.6607 54.5138 24.4322 54.1797 25.1736 53.8032C25.1984 53.8492 25.224 53.8916 25.2496 53.9411C24.8414 54.1691 24.4334 54.3971 24.0257 54.6251C23.7429 54.7833 23.453 54.93 23.1861 55.1103C23.0412 55.2075 22.9378 55.3639 22.8159 55.4938L22.8998 55.6379C23.0766 55.5831 23.2719 55.5583 23.43 55.4691C24.3138 54.9671 25.1825 54.4475 26.0609 53.9393C26.2147 53.851 26.3835 53.7891 26.6504 53.6671C26.5452 53.9155 26.4931 54.0401 26.3852 54.2858C29.2088 52.5475 31.5268 50.4177 33.7732 48.0351C33.7492 48.1215 33.716 48.205 33.6743 48.2843C29.7328 52.8037 25.1816 56.503 19.554 58.7459C17.5709 59.5342 15.5083 60.007 13.3635 59.9999C6.54373 59.9787 3.06183 55.0201 2.31685 50.4892C2.18163 49.6683 2.16131 48.8287 2.09326 48.0493C2.71187 48.0493 3.25272 48.1005 3.77942 48.0387C5.09794 47.8849 6.14782 47.1549 7.07308 46.28C8.34831 45.0808 9.54753 43.8056 10.7759 42.5542C10.8546 42.4747 10.927 42.3845 11.003 42.2988Z" fill="#42A148"/>
<path d="M44.1277 31.4025C43.7919 32.0556 43.4454 32.7025 43.1291 33.3644C43.0247 33.5909 42.9616 33.8342 42.9426 34.0828C42.9081 34.5088 43.0407 34.6131 43.5329 34.5645C42.7906 35.822 42.1976 37.1547 41.3086 38.2452C40.3043 39.4804 38.9042 40.3308 37.345 40.6525C36.4392 40.8434 35.7075 40.3741 35.3257 39.5213C34.9722 38.726 34.9722 37.8864 34.9784 37.0469C35.0049 34.1615 35.4866 31.3353 36.251 28.5631C36.7812 26.6551 37.3857 24.763 38.0308 22.8939C38.4474 21.7326 38.9234 20.5934 39.4572 19.481C40.8087 16.5788 42.1832 13.6875 43.5806 10.8072C43.8776 10.1992 44.3574 9.6804 44.7525 9.12012L44.8691 9.19082C44.7807 9.40821 44.6818 9.62296 44.5961 9.84212C44.3168 10.5491 44.4458 10.7259 45.2809 10.6189L44.6323 12.306C44.8806 12.0762 45.0741 11.8959 45.2933 11.6935C45.4701 11.9728 45.668 12.2079 45.995 11.9507C46.2203 11.774 46.4192 11.5619 46.7232 11.4205L45.5911 13.8604L45.6839 13.9258L46.367 13.2083L46.4466 13.2418C46.3016 13.7721 46.2089 14.3262 46.0047 14.8326C45.0529 17.1576 44.026 19.4518 43.1087 21.7893C41.9652 24.7012 40.8994 27.6422 39.8115 30.5753C39.6676 31.0078 39.5516 31.4491 39.4642 31.8965C39.2636 32.767 40.1261 33.6852 41.0187 33.5535C41.9396 33.4174 42.7252 33.0303 43.3208 32.2924C43.5762 31.976 43.8511 31.6738 44.1162 31.3663L44.1277 31.4025Z" fill="#F6F6F6"/>
<path d="M43.4712 33.8662C43.9537 32.1827 45.2837 30.8818 45.4923 29.0375C44.7791 29.9009 44.0827 30.7272 43.4058 31.5694C42.8234 32.294 42.1871 32.9215 41.2238 33.1097C40.6883 33.214 40.2933 33.1035 40.0043 32.6422C39.9274 32.5211 39.9592 32.2887 40.0193 32.1323C40.8668 29.9901 41.7364 27.8577 42.5821 25.7155C43.2299 24.0771 43.8459 22.4272 44.4919 20.7879C44.5387 20.6712 44.7208 20.6111 44.833 20.5157C44.9799 20.406 45.1144 20.2807 45.2342 20.1418C45.7503 19.4525 46.2532 18.7526 46.7604 18.0571L46.9027 18.1208C46.8753 18.7235 46.8143 19.3271 46.8311 19.9289C46.8426 20.3442 46.9628 20.7569 47.0326 21.1705C47.0529 21.2951 47.06 21.4224 47.0874 21.5452C47.1183 21.6875 47.1652 21.8262 47.2049 21.9668C47.3472 21.8961 47.5584 21.8642 47.6203 21.7494C47.8324 21.3826 47.9923 20.9858 48.1726 20.6005C48.2018 20.536 48.2318 20.4724 48.2681 20.3928C48.5606 20.9673 48.6657 21.6884 48.4642 22.307C47.8014 24.344 47.1713 26.3951 46.4122 28.3968C45.8776 29.8054 45.183 31.1567 44.4998 32.5017C44.2462 33.0019 43.8194 33.4146 43.4712 33.8662Z" fill="#FF5723"/>
<path d="M50.3117 0C50.3206 0.159071 50.2914 0.282794 50.3374 0.365864C50.5389 0.724659 50.7156 1.10466 50.667 1.51471C50.5936 2.1236 50.507 2.7431 50.3135 3.32283C50.0731 4.05544 50.127 4.76684 50.241 5.4968C50.355 6.22676 49.8734 6.833 49.132 6.90458C49.089 6.91213 49.045 6.91213 49.002 6.90458C48.5843 6.795 48.1666 6.68336 47.7489 6.56965C47.4679 6.49365 47.2284 6.40174 47.4431 6.03058C47.4794 5.96695 47.4352 5.77341 47.399 5.76546C47.2682 5.73541 47.0711 5.70094 46.9969 5.77164C46.7406 6.01555 46.5382 5.92365 46.2961 5.76281C46.1326 5.65499 45.9426 5.3828 45.7393 5.7575C45.704 5.82025 45.4583 5.76634 45.2091 5.76634C44.9501 5.28824 44.7345 4.65814 44.7999 3.99004C44.8291 3.68957 44.9934 3.2972 45.2267 3.13724C46.7671 2.0803 48.2199 0.892568 49.9591 0.162606C50.0661 0.121071 50.1686 0.0680472 50.3117 0Z" fill="#F6F6F6"/>
<path d="M38.953 43.7881L38.6366 43.6167C38.8469 42.5403 39.4452 41.5585 39.2738 40.3186C40.9714 39.5338 42.1768 38.1172 43.0181 36.3418C43.015 36.3979 43.0082 36.4536 42.9978 36.5088C42.9821 36.5653 42.9629 36.6208 42.9404 36.675C42.0902 38.9285 41.2389 41.1823 40.3864 43.4364C40.3037 43.6238 40.2089 43.8056 40.1027 43.9808C39.7127 44.7031 39.3227 45.4245 38.9327 46.145C38.7391 46.4985 38.5491 46.8608 38.337 47.2055C38.3022 47.2426 38.2598 47.2718 38.2127 47.291C38.1655 47.3102 38.1148 47.319 38.064 47.3168C38.0215 47.3168 37.95 47.1737 37.95 47.095C37.9432 46.9228 37.9641 46.7507 38.0118 46.5851C38.3132 45.6598 38.6295 44.7434 38.953 43.7881Z" fill="#FF5723"/>
<path d="M38.6747 40.666C38.171 41.3341 38.0852 42.1639 37.7105 42.8532C37.3415 43.5235 36.9107 44.1578 36.4238 44.748C36.5219 44.4413 36.62 44.1294 36.7199 43.828C36.9691 43.06 37.2413 42.2991 37.4578 41.5224C37.555 41.1689 37.7008 40.9559 38.0658 40.8825C38.2739 40.8257 38.4774 40.7533 38.6747 40.666Z" fill="#FF5723"/>
</svg>
